{"asset":{"version":"2.0","generator":"THREE.GLTFExporter"},"scenes":[{"name":"AuxScene","nodes":[16]}],"scene":0,"nodes":[{"matrix":[1,0,0,0,0,1,0,0,0,0,1,0,0,0.78,0,1],"name":"Head","mesh":0},{"matrix":[1,0,0,0,0,1,0,0,0,0,1,0,0,0.64,0,1],"name":"Neck","mesh":1},{"matrix":[1,0,0,0,0,1,0,0,0,0,1,0,0,0.38,0,1],"name":"Thorax","mesh":2},{"matrix":[1,0,0,0,0,1,0,0,0,0,1,0,0,0.13,0,1],"name":"Abdomen","mesh":3},{"matrix":[1,0,0,0,0,1,0,0,0,0,1,0,-0.26,0.42,0,1],"name":"LeftUpperArm","mesh":4},{"matrix":[1,0,0,0,0,1,0,0,0,0,1,0,-0.3,0.14,0.02,1],"name":"LeftForearm","mesh":5},{"matrix":[1,0,0,0,0,1,0,0,0,0,1,0,-0.31,-0.02,0.03,1],"name":"LeftHand","mesh":6},{"matrix":[1,0,0,0,0,1,0,0,0,0,1,0,0.26,0.42,0,1],"name":"RightUpperArm","mesh":7},{"matrix":[1,0,0,0,0,1,0,0,0,0,1,0,0.3,0.14,0.02,1],"name":"RightForearm","mesh":8},{"matrix":[1,0,0,0,0,1,0,0,0,0,1,0,0.31,-0.02,0.03,1],"name":"RightHand","mesh":9},{"matrix":[1,0,0,0,0,1,0,0,0,0,1,0,-0.09,-0.16,0,1],"name":"LeftThigh","mesh":10},{"matrix":[1,0,0,0,0,1,0,0,0,0,1,0,-0.09,-0.5,0,1],"name":"LeftShin","mesh":11},{"matrix":[1,0,0,0,0,1,0,0,0,0,1,0,-0.09,-0.68,0.05,1],"name":"LeftFoot","mesh":12},{"matrix":[1,0,0,0,0,1,0,0,0,0,1,0,0.09,-0.16,0,1],"name":"RightThigh","mesh":13},{"matrix":[1,0,0,0,0,1,0,0,0,0,1,0,0.09,-0.5,0,1],"name":"RightShin","mesh":14},{"matrix":[1,0,0,0,0,1,0,0,0,0,1,0,0.09,-0.68,0.05,1],"name":"RightFoot","mesh":15},{"name":"Body","children":[0,1,2,3,4,5,6,7,8,9,10,11,12,13,14,15]}],"bufferViews":[{"buffer":0,"byteOffset":0,"byteLength":9900,"target":34962,"byteStride":12},{"buffer":0,"byteOffset":9900,"byteLength":9900,"target":34962,"byteStride":12},{"buffer":0,"byteOffset":19800,"byteLength":6600,"target":34962,"byteStride":8},{"buffer":0,"byteOffset":26400,"byteLength":8832,"target":34963},{"buffer":0,"byteOffset":35232,"byteLength":1488,"target":34962,"byteStride":12},{"buffer":0,"byteOffset":36720,"byteLength":1488,"target":34962,"byteStride":12},{"buffer":0,"byteOffset":38208,"byteLength":992,"target":34962,"byteStride":8},{"buffer":0,"byteOffset":39200,"byteLength":480,"target":34963},{"buffer":0,"byteOffset":39680,"byteLength":10200,"target":34962,"byteStride":12},{"buffer":0,"byteOffset":49880,"byteLength":6800,"target":34962,"byteStride":8},{"buffer":0,"byteOffset":56680,"byteLength":10200,"target":34962,"byteStride":12},{"buffer":0,"byteOffset":66880,"byteLength":9504,"target":34963},{"buffer":0,"byteOffset":76384,"byteLength":10200,"target":34962,"byteStride":12},{"buffer":0,"byteOffset":86584,"byteLength":6800,"target":34962,"byteStride":8},{"buffer":0,"byteOffset":93384,"byteLength":10200,"target":34962,"byteStride":12},{"buffer":0,"byteOffset":103584,"byteLength":9504,"target":34963},{"buffer":0,"byteOffset":113088,"byteLength":5304,"target":34962,"byteStride":12},{"buffer":0,"byteOffset":118392,"byteLength":3536,"target":34962,"byteStride":8},{"buffer":0,"byteOffset":121928,"byteLength":5304,"target":34962,"byteStride":12},{"buffer":0,"byteOffset":127232,"byteLength":4800,"target":34963},{"buffer":0,"byteOffset":132032,"byteLength":5304,"target":34962,"byteStride":12},{"buffer":0,"byteOffset":137336,"byteLength":3536,"target":34962,"byteStride":8},{"buffer":0,"byteOffset":140872,"byteLength":5304,"target":34962,"byteStride":12},{"buffer":0,"byteOffset":146176,"byteLength":4800,"target":34963},{"buffer":0,"byteOffset":150976,"byteLength":2652,"target":34962,"byteStride":12},{"buffer":0,"byteOffset":153628,"byteLength":2652,"target":34962,"byteStride":12},{"buffer":0,"byteOffset":156280,"byteLength":1768,"target":34962,"byteStride":8},{"buffer":0,"byteOffset":158048,"byteLength":2112,"target":34963},{"buffer":0,"byteOffset":160160,"byteLength":5304,"target":34962,"byteStride":12},{"buffer":0,"byteOffset":165464,"byteLength":3536,"target":34962,"byteStride":8},{"buffer":0,"byteOffset":169000,"byteLength":5304,"target":34962,"byteStride":12},{"buffer":0,"byteOffset":174304,"byteLength":4800,"target":34963},{"buffer":0,"byteOffset":179104,"byteLength":5304,"target":34962,"byteStride":12},{"buffer":0,"byteOffset":184408,"byteLength":3536,"target":34962,"byteStride":8},{"buffer":0,"byteOffset":187944,"byteLength":5304,"target":34962,"byteStride":12},{"buffer":0,"byteOffset":193248,"byteLength":4800,"target":34963},{"buffer":0,"byteOffset":198048,"byteLength":2652,"target":34962,"byteStride":12},{"buffer":0,"byteOffset":200700,"byteLength":2652,"target":34962,"byteStride":12},{"buffer":0,"byteOffset":203352,"byteLength":1768,"target":34962,"byteStride":8},{"buffer":0,"byteOffset":205120,"byteLength":2112,"target":34963},{"buffer":0,"byteOffset":207232,"byteLength":5304,"target":34962,"byteStride":12},{"buffer":0,"byteOffset":212536,"byteLength":3536,"target":34962,"byteStride":8},{"buffer":0,"byteOffset":216072,"byteLength":5304,"target":34962,"byteStride":12},{"buffer":0,"byteOffset":221376,"byteLength":4800,"target":34963},{"buffer":0,"byteOffset":226176,"byteLength":5304,"target":34962,"byteStride":12},{"buffer":0,"byteOffset":231480,"byteLength":3536,"target":34962,"byteStride":8},{"buffer":0,"byteOffset":235016,"byteLength":5304,"target":34962,"byteStride":12},{"buffer":0,"byteOffset":240320,"byteLength":4800,"target":34963},{"buffer":0,"byteOffset":245120,"byteLength":288,"target":34962,"byteStride":12},{"buffer":0,"byteOffset":245408,"byteLength":288,"target":34962,"byteStride":12},{"buffer":0,"byteOffset":245696,"byteLength":192,"target":34962,"byteStride":8},{"buffer":0,"byteOffset":245888,"byteLength":72,"target":34963},{"buffer":0,"byteOffset":245960,"byteLength":5304,"target":34962,"byteStride":12},{"buffer":0,"byteOffset":251264,"byteLength":3536,"target":34962,"byteStride":8},{"buffer":0,"byteOffset":254800,"byteLength":5304,"target":34962,"byteStride":12},{"buffer":0,"byteOffset":260104,"byteLength":4800,"target":34963},{"buffer":0,"byteOffset":264904,"byteLength":5304,"target":34962,"byteStride":12},{"buffer":0,"byteOffset":270208,"byteLength":3536,"target":34962,"byteStride":8},{"buffer":0,"byteOffset":273744,"byteLength":5304,"target":34962,"byteStride":12},{"buffer":0,"byteOffset":279048,"byteLength":4800,"target":34963},{"buffer":0,"byteOffset":283848,"byteLength":288,"target":34962,"byteStride":12},{"buffer":0,"byteOffset":284136,"byteLength":288,"target":34962,"byteStride":12},{"buffer":0,"byteOffset":284424,"byteLength":192,"target":34962,"byteStride":8},{"buffer":0,"byteOffset":284616,"byteLength":72,"target":34963}],"buffers":[{"byteLength":284688,"uri":"data:application/octet-stream;base64,"}],"accessors":[{"bufferView":0,"componentType":5126,"count":825,"max":[0.1599999964237213,0.1599999964237213,0.1599999964237213],"min":[-0.1599999964237213,-0.1599999964237213,-0.1599999964237213],"type":"VEC3"},{"bufferView":1,"componentType":5126,"count":825,"max":[1,1,1],"min":[-1,-1,-1],"type":"VEC3"},{"bufferView":2,"componentType":5126,"count":825,"max":[1.015625,1],"min":[-0.015625,0],"type":"VEC2"},{"bufferView":3,"componentType":5123,"count":4416,"max":[824],"min":[0],"type":"SCALAR"},{"bufferView":4,"componentType":5126,"count":124,"max":[0.07000000029802322,0.05000000074505806,0.07000000029802322],"min":[-0.07000000029802322,-0.05000000074505806,-0.07000000029802322],"type":"VEC3"},{"bufferView":5,"componentType":5126,"count":124,"max":[0.9950371980667114,1,0.9950371980667114],"min":[-0.9950371980667114,-1,-0.9950371980667114],"type":"VEC3"},{"bufferView":6,"componentType":5126,"count":124,"max":[1,1],"min":[0,0],"type":"VEC2"},{"bufferView":7,"componentType":5123,"count":240,"max":[123],"min":[0],"type":"SCALAR"},{"bufferView":8,"componentType":5126,"count":850,"max":[0.1899999976158142,0.36000001430511475,0.1899999976158142],"min":[-0.1899999976158142,-0.36000001430511475,-0.1899999976158142],"type":"VEC3"},{"bufferView":9,"componentType":5126,"count":850,"max":[1,1],"min":[0,0],"type":"VEC2"},{"bufferView":10,"componentType":5126,"count":850,"max":[0.9999967217445374,0.9987954497337341,0.9999967217445374],"min":[-0.9999967217445374,-0.9987954497337341,-0.9999967217445374],"type":"VEC3"},{"bufferView":11,"componentType":5123,"count":4752,"max":[849],"min":[0],"type":"SCALAR"},{"bufferView":12,"componentType":5126,"count":850,"max":[0.17000000178813934,0.23000000417232513,0.17000000178813934],"min":[-0.17000000178813934,-0.23000000417232513,-0.17000000178813934],"type":"VEC3"},{"bufferView":13,"componentType":5126,"count":850,"max":[1,1],"min":[0,0],"type":"VEC2"},{"bufferView":14,"componentType":5126,"count":850,"max":[0.9999820590019226,0.9987954497337341,0.9999820590019226],"min":[-0.9999820590019226,-0.9987954497337341,-0.9999820590019226],"type":"VEC3"},{"bufferView":15,"componentType":5123,"count":4752,"max":[849],"min":[0],"type":"SCALAR"},{"bufferView":16,"componentType":5126,"count":442,"max":[0.05000000074505806,0.17000000178813934,0.05000000074505806],"min":[-0.05000000074505806,-0.17000000178813934,-0.05000000074505806],"type":"VEC3"},{"bufferView":17,"componentType":5126,"count":442,"max":[1,1],"min":[0,0],"type":"VEC2"},{"bufferView":18,"componentType":5126,"count":442,"max":[0.9999985098838806,0.9978589415550232,0.9999985098838806],"min":[-0.9999985098838806,-0.9978589415550232,-0.9999985098838806],"type":"VEC3"},{"bufferView":19,"componentType":5123,"count":2400,"max":[441],"min":[0],"type":"SCALAR"},{"bufferView":20,"componentType":5126,"count":442,"max":[0.0430000014603138,0.15299999713897705,0.0430000014603138],"min":[-0.0430000014603138,-0.15299999713897705,-0.0430000014603138],"type":"VEC3"},{"bufferView":21,"componentType":5126,"count":442,"max":[1,1],"min":[0,0],"type":"VEC2"},{"bufferView":22,"componentType":5126,"count":442,"max":[0.9999986886978149,0.9978589415550232,0.9999986886978149],"min":[-0.9999986886978149,-0.9978589415550232,-0.9999986886978149],"type":"VEC3"},{"bufferView":23,"componentType":5123,"count":2400,"max":[441],"min":[0],"type":"SCALAR"},{"bufferView":24,"componentType":5126,"count":221,"max":[0.05999999865889549,0.05999999865889549,0.05999999865889549],"min":[-0.05999999865889549,-0.05999999865889549,-0.05999999865889549],"type":"VEC3"},{"bufferView":25,"componentType":5126,"count":221,"max":[1,1,1],"min":[-1,-1,-1],"type":"VEC3"},{"bufferView":26,"componentType":5126,"count":221,"max":[1.03125,1],"min":[-0.03125,0],"type":"VEC2"},{"bufferView":27,"componentType":5123,"count":1056,"max":[220],"min":[0],"type":"SCALAR"},{"bufferView":28,"componentType":5126,"count":442,"max":[0.05000000074505806,0.17000000178813934,0.05000000074505806],"min":[-0.05000000074505806,-0.17000000178813934,-0.05000000074505806],"type":"VEC3"},{"bufferView":29,"componentType":5126,"count":442,"max":[1,1],"min":[0,0],"type":"VEC2"},{"bufferView":30,"componentType":5126,"count":442,"max":[0.9999985098838806,0.9978589415550232,0.9999985098838806],"min":[-0.9999985098838806,-0.9978589415550232,-0.9999985098838806],"type":"VEC3"},{"bufferView":31,"componentType":5123,"count":2400,"max":[441],"min":[0],"type":"SCALAR"},{"bufferView":32,"componentType":5126,"count":442,"max":[0.0430000014603138,0.15299999713897705,0.0430000014603138],"min":[-0.0430000014603138,-0.15299999713897705,-0.0430000014603138],"type":"VEC3"},{"bufferView":33,"componentType":5126,"count":442,"max":[1,1],"min":[0,0],"type":"VEC2"},{"bufferView":34,"componentType":5126,"count":442,"max":[0.9999986886978149,0.9978589415550232,0.9999986886978149],"min":[-0.9999986886978149,-0.9978589415550232,-0.9999986886978149],"type":"VEC3"},{"bufferView":35,"componentType":5123,"count":2400,"max":[441],"min":[0],"type":"SCALAR"},{"bufferView":36,"componentType":5126,"count":221,"max":[0.05999999865889549,0.05999999865889549,0.05999999865889549],"min":[-0.05999999865889549,-0.05999999865889549,-0.05999999865889549],"type":"VEC3"},{"bufferView":37,"componentType":5126,"count":221,"max":[1,1,1],"min":[-1,-1,-1],"type":"VEC3"},{"bufferView":38,"componentType":5126,"count":221,"max":[1.03125,1],"min":[-0.03125,0],"type":"VEC2"},{"bufferView":39,"componentType":5123,"count":1056,"max":[220],"min":[0],"type":"SCALAR"},{"bufferView":40,"componentType":5126,"count":442,"max":[0.07500000298023224,0.2150000035762787,0.07500000298023224],"min":[-0.07500000298023224,-0.2150000035762787,-0.07500000298023224],"type":"VEC3"},{"bufferView":41,"componentType":5126,"count":442,"max":[1,1],"min":[0,0],"type":"VEC2"},{"bufferView":42,"componentType":5126,"count":442,"max":[0.9999975562095642,0.9978589415550232,0.9999975562095642],"min":[-0.9999975562095642,-0.9978589415550232,-0.9999975562095642],"type":"VEC3"},{"bufferView":43,"componentType":5123,"count":2400,"max":[441],"min":[0],"type":"SCALAR"},{"bufferView":44,"componentType":5126,"count":442,"max":[0.05999999865889549,0.20000000298023224,0.05999999865889549],"min":[-0.05999999865889549,-0.20000000298023224,-0.05999999865889549],"type":"VEC3"},{"bufferView":45,"componentType":5126,"count":442,"max":[1,1],"min":[0,0],"type":"VEC2"},{"bufferView":46,"componentType":5126,"count":442,"max":[0.9999983906745911,0.9978589415550232,0.9999983906745911],"min":[-0.9999983906745911,-0.9978589415550232,-0.9999983906745911],"type":"VEC3"},{"bufferView":47,"componentType":5123,"count":2400,"max":[441],"min":[0],"type":"SCALAR"},{"bufferView":48,"componentType":5126,"count":24,"max":[0.04500000178813934,0.029999999329447746,0.10000000149011612],"min":[-0.04500000178813934,-0.029999999329447746,-0.10000000149011612],"type":"VEC3"},{"bufferView":49,"componentType":5126,"count":24,"max":[1,1,1],"min":[-1,-1,-1],"type":"VEC3"},{"bufferView":50,"componentType":5126,"count":24,"max":[1,1],"min":[0,0],"type":"VEC2"},{"bufferView":51,"componentType":5123,"count":36,"max":[23],"min":[0],"type":"SCALAR"},{"bufferView":52,"componentType":5126,"count":442,"max":[0.07500000298023224,0.2150000035762787,0.07500000298023224],"min":[-0.07500000298023224,-0.2150000035762787,-0.07500000298023224],"type":"VEC3"},{"bufferView":53,"componentType":5126,"count":442,"max":[1,1],"min":[0,0],"type":"VEC2"},{"bufferView":54,"componentType":5126,"count":442,"max":[0.9999975562095642,0.9978589415550232,0.9999975562095642],"min":[-0.9999975562095642,-0.9978589415550232,-0.9999975562095642],"type":"VEC3"},{"bufferView":55,"componentType":5123,"count":2400,"max":[441],"min":[0],"type":"SCALAR"},{"bufferView":56,"componentType":5126,"count":442,"max":[0.05999999865889549,0.20000000298023224,0.05999999865889549],"min":[-0.05999999865889549,-0.20000000298023224,-0.05999999865889549],"type":"VEC3"},{"bufferView":57,"componentType":5126,"count":442,"max":[1,1],"min":[0,0],"type":"VEC2"},{"bufferView":58,"componentType":5126,"count":442,"max":[0.9999983906745911,0.9978589415550232,0.9999983906745911],"min":[-0.9999983906745911,-0.9978589415550232,-0.9999983906745911],"type":"VEC3"},{"bufferView":59,"componentType":5123,"count":2400,"max":[441],"min":[0],"type":"SCALAR"},{"bufferView":60,"componentType":5126,"count":24,"max":[0.04500000178813934,0.029999999329447746,0.10000000149011612],"min":[-0.04500000178813934,-0.029999999329447746,-0.10000000149011612],"type":"VEC3"},{"bufferView":61,"componentType":5126,"count":24,"max":[1,1,1],"min":[-1,-1,-1],"type":"VEC3"},{"bufferView":62,"componentType":5126,"count":24,"max":[1,1],"min":[0,0],"type":"VEC2"},{"bufferView":63,"componentType":5123,"count":36,"max":[23],"min":[0],"type":"SCALAR"}],"materials":[{"pbrMetallicRoughness":{"baseColorFactor":[0.6938717612856897,0.3515325994898463,0.13286832154414627,1],"metallicFactor":0.03,"roughnessFactor":0.7}},{"pbrMetallicRoughness":{"baseColorFactor":[0.6938717612856897,0.3515325994898463,0.13286832154414627,1],"metallicFactor":0.03,"roughnessFactor":0.7}},{"pbrMetallicRoughness":{"baseColorFactor":[0.5840784178830671,0.2746773120495699,0.10224173307914941,1],"metallicFactor":0.03,"roughnessFactor":0.7}},{"pbrMetallicRoughness":{"baseColorFactor":[0.5209955731953768,0.23455058215026167,0.0781874217970207,1],"metallicFactor":0.03,"roughnessFactor":0.7}},{"pbrMetallicRoughness":{"baseColorFactor":[0.6938717612856897,0.3515325994898463,0.13286832154414627,1],"metallicFactor":0.03,"roughnessFactor":0.7}},{"pbrMetallicRoughness":{"baseColorFactor":[0.6938717612856897,0.3515325994898463,0.13286832154414627,1],"metallicFactor":0.03,"roughnessFactor":0.7}},{"pbrMetallicRoughness":{"baseColorFactor":[0.6938717612856897,0.3515325994898463,0.13286832154414627,1],"metallicFactor":0.03,"roughnessFactor":0.7}},{"pbrMetallicRoughness":{"baseColorFactor":[0.6938717612856897,0.3515325994898463,0.13286832154414627,1],"metallicFactor":0.03,"roughnessFactor":0.7}},{"pbrMetallicRoughness":{"baseColorFactor":[0.6938717612856897,0.3515325994898463,0.13286832154414627,1],"metallicFactor":0.03,"roughnessFactor":0.7}},{"pbrMetallicRoughness":{"baseColorFactor":[0.6938717612856897,0.3515325994898463,0.13286832154414627,1],"metallicFactor":0.03,"roughnessFactor":0.7}},{"pbrMetallicRoughness":{"baseColorFactor":[0.6938717612856897,0.3515325994898463,0.13286832154414627,1],"metallicFactor":0.03,"roughnessFactor":0.7}},{"pbrMetallicRoughness":{"baseColorFactor":[0.6938717612856897,0.3515325994898463,0.13286832154414627,1],"metallicFactor":0.03,"roughnessFactor":0.7}},{"pbrMetallicRoughness":{"baseColorFactor":[0.3231432091022285,0.14702726648767014,0.04970656597728775,1],"metallicFactor":0.03,"roughnessFactor":0.7}},{"pbrMetallicRoughness":{"baseColorFactor":[0.6938717612856897,0.3515325994898463,0.13286832154414627,1],"metallicFactor":0.03,"roughnessFactor":0.7}},{"pbrMetallicRoughness":{"baseColorFactor":[0.6938717612856897,0.3515325994898463,0.13286832154414627,1],"metallicFactor":0.03,"roughnessFactor":0.7}},{"pbrMetallicRoughness":{"baseColorFactor":[0.3231432091022285,0.14702726648767014,0.04970656597728775,1],"metallicFactor":0.03,"roughnessFactor":0.7}}],"meshes":[{"primitives":[{"mode":4,"attributes":{"POSITION":0,"NORMAL":1,"TEXCOORD_0":2},"indices":3,"material":0}]},{"primitives":[{"mode":4,"attributes":{"POSITION":4,"NORMAL":5,"TEXCOORD_0":6},"indices":7,"material":1}]},{"primitives":[{"mode":4,"attributes":{"POSITION":8,"TEXCOORD_0":9,"NORMAL":10},"indices":11,"material":2}]},{"primitives":[{"mode":4,"attributes":{"POSITION":12,"TEXCOORD_0":13,"NORMAL":14},"indices":15,"material":3}]},{"primitives":[{"mode":4,"attributes":{"POSITION":16,"TEXCOORD_0":17,"NORMAL":18},"indices":19,"material":4}]},{"primitives":[{"mode":4,"attributes":{"POSITION":20,"TEXCOORD_0":21,"NORMAL":22},"indices":23,"material":5}]},{"primitives":[{"mode":4,"attributes":{"POSITION":24,"NORMAL":25,"TEXCOORD_0":26},"indices":27,"material":6}]},{"primitives":[{"mode":4,"attributes":{"POSITION":28,"TEXCOORD_0":29,"NORMAL":30},"indices":31,"material":7}]},{"primitives":[{"mode":4,"attributes":{"POSITION":32,"TEXCOORD_0":33,"NORMAL":34},"indices":35,"material":8}]},{"primitives":[{"mode":4,"attributes":{"POSITION":36,"NORMAL":37,"TEXCOORD_0":38},"indices":39,"material":9}]},{"primitives":[{"mode":4,"attributes":{"POSITION":40,"TEXCOORD_0":41,"NORMAL":42},"indices":43,"material":10}]},{"primitives":[{"mode":4,"attributes":{"POSITION":44,"TEXCOORD_0":45,"NORMAL":46},"indices":47,"material":11}]},{"primitives":[{"mode":4,"attributes":{"POSITION":48,"NORMAL":49,"TEXCOORD_0":50},"indices":51,"material":12}]},{"primitives":[{"mode":4,"attributes":{"POSITION":52,"TEXCOORD_0":53,"NORMAL":54},"indices":55,"material":13}]},{"primitives":[{"mode":4,"attributes":{"POSITION":56,"TEXCOORD_0":57,"NORMAL":58},"indices":59,"material":14}]},{"primitives":[{"mode":4,"attributes":{"POSITION":60,"NORMAL":61,"TEXCOORD_0":62},"indices":63,"material":15}]}]}